<svg id="Layer_2" data-name="Layer 2" xmlns="http://www.w3.org/2000/svg" viewBox="0 0 142 114"><defs><style>.cls-1{fill:none;stroke:#fff;stroke-miterlimit:10;stroke-width:8px;}.cls-2{fill:#fff;}</style></defs><rect class="cls-1" x="27" y="13" width="106" height="134" rx="14" transform="translate(-9 137) rotate(-90)"/><path class="cls-2" d="M52.68,75a7,7,0,0,0,4.51-1.53A5.38,5.38,0,0,0,59.08,69a5.26,5.26,0,0,0-1.51-3.77,5.36,5.36,0,0,0-4.07-1.58,7.13,7.13,0,0,0-2.86.49,4.62,4.62,0,0,0-1.78,1.28,9.81,9.81,0,0,0-1.24,2c-.39.83-.74,1.62-1.06,2.36a2,2,0,0,1-1,.94,4,4,0,0,1-1.71.34,3,3,0,0,1-2.09-.92,3.31,3.31,0,0,1-.95-2.47,6.57,6.57,0,0,1,.89-3.11,11.46,11.46,0,0,1,2.62-3.12,13.18,13.18,0,0,1,4.29-2.38,17.17,17.17,0,0,1,5.72-.89,16.06,16.06,0,0,1,5,.75,11.66,11.66,0,0,1,3.95,2.18,9.45,9.45,0,0,1,2.54,3.3,9.63,9.63,0,0,1,.85,4,9.15,9.15,0,0,1-1.24,4.88,16.2,16.2,0,0,1-3.54,4,15.53,15.53,0,0,1,3.74,2.74,10.22,10.22,0,0,1,3.06,7.43,12.5,12.5,0,0,1-1,5,12.71,12.71,0,0,1-3.06,4.31,14.49,14.49,0,0,1-4.79,3,17,17,0,0,1-6.14,1.07,14.67,14.67,0,0,1-6.12-1.23,14,14,0,0,1-7.1-6.86,8.22,8.22,0,0,1-.9-3.24,3.49,3.49,0,0,1,1.07-2.66,3.69,3.69,0,0,1,2.66-1,2.78,2.78,0,0,1,1.54.47,2.2,2.2,0,0,1,1,1.12A19,19,0,0,0,49,93.34a6,6,0,0,0,4.77,1.92,7.18,7.18,0,0,0,6.11-3.45,8.19,8.19,0,0,0-.76-9.18A6.7,6.7,0,0,0,54,80.74c-.38,0-1,0-1.76.12s-1.31.11-1.54.11a3.47,3.47,0,0,1-2.42-.78A2.82,2.82,0,0,1,47.44,78a2.73,2.73,0,0,1,1-2.21,4.74,4.74,0,0,1,3-.84Z" transform="translate(-9 -23)"/><path class="cls-2" d="M78.7,100.87a4.44,4.44,0,0,1-3-1.14,4.06,4.06,0,0,1-1.28-3.19,4.12,4.12,0,0,1,1.23-3,4.06,4.06,0,0,1,3-1.25,4.22,4.22,0,0,1,3.06,1.24,4.4,4.4,0,0,1,0,6.17A4.3,4.3,0,0,1,78.7,100.87Z" transform="translate(-9 -23)"/><path class="cls-2" d="M106.37,96.54V91.25H92.08A5.84,5.84,0,0,1,88,90a4.25,4.25,0,0,1-1.35-3.33,3,3,0,0,1,.2-1.09,5.84,5.84,0,0,1,.59-1.17c.27-.41.54-.8.83-1.18l1-1.4,15.09-20.18a23.9,23.9,0,0,1,2.43-2.89,3.23,3.23,0,0,1,2.29-.9c2.89,0,4.33,1.66,4.33,5v22h1.22a8.61,8.61,0,0,1,3.52.6,2.57,2.57,0,0,1,1.32,2.62,2.72,2.72,0,0,1-1.08,2.4,5.7,5.7,0,0,1-3.24.76h-1.74v5.29a4.71,4.71,0,0,1-1,3.26,3.33,3.33,0,0,1-2.59,1.07,3.28,3.28,0,0,1-2.57-1.1A4.68,4.68,0,0,1,106.37,96.54ZM94.13,84.87h12.24V68.33Z" transform="translate(-9 -23)"/></svg>