<svg id="Layer_1" data-name="Layer 1" xmlns="http://www.w3.org/2000/svg" viewBox="0 0 20 20"><defs><style>.cls-1{fill:#1d70b8;}</style></defs><path class="cls-1" d="M10,0A10,10,0,1,0,20,10,10,10,0,0,0,10,0ZM9.77,16.5A1.77,1.77,0,0,1,8,14.77a1.75,1.75,0,1,1,3.5,0A1.77,1.77,0,0,1,9.77,16.5Zm4-8.8a3.64,3.64,0,0,1-.91,1.47l-.94.92a2.33,2.33,0,0,0-.81,1.81s0,.06,0,.1H8.63a4,4,0,0,1,.22-1.69,5.42,5.42,0,0,1,1-1.53c.33-.37.67-.74,1-1.15a1,1,0,0,0-.12-1.43,1.3,1.3,0,0,0-.8-.3,2.94,2.94,0,0,0-2.12.76c-.13.11-.25.24-.39.36L6,5.22A5.61,5.61,0,0,1,7.76,3.94a5.43,5.43,0,0,1,2.72-.46A3.88,3.88,0,0,1,13.16,4.7,2.91,2.91,0,0,1,13.81,7.7Z"/></svg>